<svg xmlns="http://www.w3.org/2000/svg" viewBox="0 0 24 24" fill="none">
  <defs>
    <linearGradient id="l" x1="0" y1="0" x2="1" y2="0"><stop offset="0%" stop-color="#6d28d9"/><stop offset="100%" stop-color="#7c3aed"/></linearGradient>
    <linearGradient id="r" x1="0" y1="0" x2="1" y2="0"><stop offset="0%" stop-color="#8b5cf6"/><stop offset="100%" stop-color="#a78bfa"/></linearGradient>
  </defs>
  <path d="M4.5 4.8A2.2 2.2 0 0 1 6.7 2.6H11v18.8H6.7A2.2 2.2 0 0 1 4.5 19.2V4.8z" fill="url(#l)" stroke="#c4b5fd" stroke-width="0.9"/>
  <path d="M11 2.6h4.8A2.2 2.2 0 0 1 18 4.8v14.4a2.2 2.2 0 0 1-2.2 2.2H11V2.6z" fill="url(#r)" stroke="#ddd6fe" stroke-width="0.9"/>
  <path d="M6.5 7.5h2.8M6.5 10.8h2.8M13.5 7.5h2.8M13.5 10.8h2.8M6.5 14h2.8M13.5 14h2.8" stroke="#f5f3ff" stroke-width="1.2" stroke-linecap="round"/>
</svg>
