<svg xmlns="http://www.w3.org/2000/svg" viewBox="0 0 24 24" fill="none">
  <defs>
    <linearGradient id="left" x1="0" y1="0" x2="1" y2="0"><stop offset="0%" stop-color="#6d28d9"/><stop offset="100%" stop-color="#7c3aed"/></linearGradient>
    <linearGradient id="right" x1="0" y1="0" x2="1" y2="0"><stop offset="0%" stop-color="#8b5cf6"/><stop offset="100%" stop-color="#a78bfa"/></linearGradient>
  </defs>
  <ellipse cx="12" cy="21" rx="7.5" ry="1" fill="#000" opacity="0.2"/>
  <path d="M4 5.2A2.4 2.4 0 0 1 6.4 2.8H11v18.2H6.4A2.4 2.4 0 0 1 4 18.6V5.2z" fill="url(#left)" stroke="#c4b5fd" stroke-width="0.9"/>
  <path d="M11 2.8h4.6A2.4 2.4 0 0 1 18 5.2v13.4a2.4 2.4 0 0 1-2.4 2.4H11V2.8z" fill="url(#right)" stroke="#ddd6fe" stroke-width="0.9"/>
  <path d="M4.8 3.8h5.5" stroke="#ede9fe" stroke-width="0.7" opacity="0.55"/>
  <path d="M7 8h2.8M7 11.2h2.8M14.2 8h2.8M14.2 11.2h2.8" stroke="#f5f3ff" stroke-width="1.2" stroke-linecap="round" opacity="0.85"/>
  <path d="M11 3.2v17.4" stroke="#4c1d95" stroke-width="0.8" opacity="0.5"/>
</svg>
