<svg xmlns="http://www.w3.org/2000/svg" viewBox="0 0 24 24" fill="none">
  <defs>
    <linearGradient id="case" x1="0" y1="0" x2="0" y2="1"><stop offset="0%" stop-color="#64748b"/><stop offset="45%" stop-color="#334155"/><stop offset="100%" stop-color="#0f172a"/></linearGradient>
    <linearGradient id="screen" x1="0" y1="0" x2="0" y2="1"><stop offset="0%" stop-color="#0ea5e9"/><stop offset="100%" stop-color="#0369a1"/></linearGradient>
    <linearGradient id="key" x1="0" y1="0" x2="0" y2="1"><stop offset="0%" stop-color="#94a3b8"/><stop offset="100%" stop-color="#475569"/></linearGradient>
    <linearGradient id="op" x1="0" y1="0" x2="0" y2="1"><stop offset="0%" stop-color="#fbbf24"/><stop offset="100%" stop-color="#d97706"/></linearGradient>
  </defs>
  <ellipse cx="12" cy="21.2" rx="6.5" ry="1" fill="#000" opacity="0.28"/>
  <rect x="5.5" y="2.5" width="13" height="19" rx="3.2" fill="url(#case)" stroke="#cbd5e1" stroke-width="1"/>
  <path d="M6.5 3.8h11" stroke="#e2e8f0" stroke-width="0.7" opacity="0.55"/>
  <rect x="7.2" y="4.8" width="9.6" height="4.2" rx="1.2" fill="url(#screen)" stroke="#7dd3fc" stroke-width="0.8"/>
  <path d="M14.4 6.4h2.2M15.5 5.3v2.2" stroke="#e0f2fe" stroke-width="0.95" stroke-linecap="round"/>
  <rect x="7.4" y="10.4" width="2.6" height="2.6" rx="0.9" fill="url(#key)" stroke="#e2e8f0" stroke-width="0.6"/>
  <rect x="10.7" y="10.4" width="2.6" height="2.6" rx="0.9" fill="url(#key)" stroke="#e2e8f0" stroke-width="0.6"/>
  <rect x="14" y="10.4" width="2.6" height="2.6" rx="0.9" fill="url(#key)" stroke="#e2e8f0" stroke-width="0.6"/>
  <rect x="7.4" y="13.8" width="2.6" height="2.6" rx="0.9" fill="url(#key)" stroke="#e2e8f0" stroke-width="0.6"/>
  <rect x="10.7" y="13.8" width="2.6" height="2.6" rx="0.9" fill="url(#key)" stroke="#e2e8f0" stroke-width="0.6"/>
  <rect x="14" y="13.8" width="2.6" height="2.6" rx="0.9" fill="url(#op)" stroke="#fde68a" stroke-width="0.6"/>
  <rect x="7.4" y="17.2" width="2.6" height="2.6" rx="0.9" fill="url(#key)" stroke="#e2e8f0" stroke-width="0.6"/>
  <rect x="10.7" y="17.2" width="2.6" height="2.6" rx="0.9" fill="url(#key)" stroke="#e2e8f0" stroke-width="0.6"/>
  <rect x="14" y="17.2" width="2.6" height="2.6" rx="0.9" fill="url(#key)" stroke="#e2e8f0" stroke-width="0.6"/>
  <path d="M8 11.6h1.4M11.3 11.6h1.4M14.6 11.6h1.4" stroke="#f8fafc" stroke-width="0.85" stroke-linecap="round"/>
  <path d="M8 15h1.4M11.3 15h1.4" stroke="#f8fafc" stroke-width="0.85" stroke-linecap="round"/>
  <path d="M14.6 14.2l1.4 1.4M16 14.2l-1.4 1.4" stroke="#1e293b" stroke-width="1" stroke-linecap="round"/>
  <path d="M8 18.4h1.4M11.3 18.4h1.4M14.6 18.4h1.4" stroke="#f8fafc" stroke-width="0.85" stroke-linecap="round"/>
</svg>
