<svg xmlns="http://www.w3.org/2000/svg" viewBox="0 0 24 24" fill="none">
  <defs>
    <linearGradient id="gearTop" x1="0" y1="0" x2="0" y2="1">
      <stop offset="0%" stop-color="#ECEFF1"/>
      <stop offset="45%" stop-color="#B0BEC5"/>
      <stop offset="100%" stop-color="#78909C"/>
    </linearGradient>
    <linearGradient id="gearInner" x1="0" y1="0" x2="1" y2="1">
      <stop offset="0%" stop-color="#CFD8DC"/>
      <stop offset="100%" stop-color="#607D8B"/>
    </linearGradient>
    <filter id="softShadow" x="-20%" y="-20%" width="140%" height="140%">
      <feDropShadow dx="0" dy="1" stdDeviation="0.6" flood-color="#000000" flood-opacity="0.28"/>
    </filter>
  </defs>
  <g filter="url(#softShadow)">
    <path fill="url(#gearTop)" stroke="#546E7A" stroke-width="0.35" stroke-linejoin="round"
      d="M19.14 12.94c.04-.3.06-.61.06-.94 0-.32-.02-.64-.07-.94l2.03-1.58c.18-.14.23-.41.12-.61l-1.92-3.32c-.12-.22-.37-.29-.59-.22l-2.39.96c-.5-.38-1.03-.7-1.62-.94l-.36-2.54c-.04-.24-.24-.41-.48-.41h-3.84c-.24 0-.43.17-.47.41l-.36 2.54c-.59.24-1.13.56-1.62.94l-2.39-.96c-.22-.08-.47 0-.59.22l-1.92 3.32c-.12.22-.07.47.12.61l2.03 1.58c-.05.3-.07.62-.07.94 0 .32.02.64.07.94l-2.03 1.58c-.18.14-.23.41-.12.61l1.92 3.32c.12.22.37.29.59.22l2.39-.96c.5.38 1.03.7 1.62.94l.36 2.54c.04.24.24.41.48.41h3.84c.24 0 .44-.17.47-.41l.36-2.54c.59-.24 1.13-.56 1.62-.94l2.39.96c.22.08.47 0 .59-.22l1.92-3.32c.12-.22.07-.47-.12-.61l-2.03-1.58z"/>
    <circle cx="12" cy="12" r="3.15" fill="url(#gearInner)" stroke="#455A64" stroke-width="0.35"/>
    <circle cx="12" cy="12" r="1.35" fill="#ECEFF1" stroke="#90A4AE" stroke-width="0.25"/>
  </g>
</svg>
