<svg xmlns="http://www.w3.org/2000/svg" viewBox="0 0 24 24" fill="none">
  <defs>
    <linearGradient id="wrench" x1="0" y1="0" x2="1" y2="1"><stop offset="0%" stop-color="#67e8f9"/><stop offset="100%" stop-color="#0891b2"/></linearGradient>
    <linearGradient id="bolt" x1="0" y1="0" x2="0" y2="1"><stop offset="0%" stop-color="#22d3ee"/><stop offset="100%" stop-color="#0e7490"/></linearGradient>
  </defs>
  <ellipse cx="12" cy="21" rx="7" ry="1" fill="#000" opacity="0.2"/>
  <path d="M14.8 6.2a3.8 3.8 0 0 0-5.2 5.2L3.8 17.2a1.5 1.5 0 0 0 2.1 2.1l5.8-5.8a3.8 3.8 0 0 0 5.2-5.2l-1.8 1.8-2.8-2.8 1.8-1.8z" fill="url(#wrench)" stroke="#a5f3fc" stroke-width="0.9" stroke-linejoin="round"/>
  <path d="M15.8 5.2l1.4 1.4" stroke="#ecfeff" stroke-width="0.7" opacity="0.75"/>
  <circle cx="7.4" cy="16.6" r="2.3" fill="url(#bolt)" stroke="#cffafe" stroke-width="0.8"/>
  <path d="M17.2 4.8l1.6 1.6M20 7.6l1.6 1.6" stroke="#22d3ee" stroke-width="1.5" stroke-linecap="round"/>
</svg>
